<?xml version="1.0" encoding="utf-8"?>
<!-- Generator: Adobe Illustrator 18.1.1, SVG Export Plug-In . SVG Version: 6.00 Build 0)  -->
<svg version="1.1" id="Layer_1" xmlns="http://www.w3.org/2000/svg" xmlns:xlink="http://www.w3.org/1999/xlink" x="0px" y="0px"
	 width="80px" height="60px" viewBox="-40 762 80 60" enable-background="new -40 762 80 60" xml:space="preserve">
<g>
	<g>
		<g>
			<path fill="#ffffff" d="M-12,777.6v0.3c0,3.1-2.6,5.6-5.6,5.6H-23c0,0.6,0,1.2-0.2,1.7l-5.8,21.5l-0.3-0.2
				c-3.1-1.6-4.4-4.6-3.5-7.8l4-15.2l-11.2,0l0.1-0.3c0.7-3.3,3.2-5.5,6.5-5.5c0.1,0,0.2,0,0.2,0H-12z"/>
		</g>
	</g>
	<path fill="#ffffff" d="M23.2,786.8c-0.3,1.3-1.5,2.1-2.8,2.1c-0.2,0-0.5,0-0.7-0.1c-0.7-0.2-1.4-0.7-1.8-1.4
		c-0.4-0.7-0.5-1.4-0.3-2.2c0.3-1.3,1.5-2.1,2.8-2.1c0.2,0,0.5,0,0.7,0.1c0.7,0.2,1.4,0.7,1.8,1.4C23.3,785.2,23.4,786,23.2,786.8z"
		/>
	<path fill="#ffffff" d="M39.7,794.6c0-3.1-2.5-5.6-5.5-5.6H32l1.2-4.2c0.4-1.4,0.2-3-0.5-4.3c-0.7-1.4-1.9-2.4-3.3-2.7l-0.2,0
		l-5.5,20.9c0,0.2-0.1,0.4-0.1,0.5l-0.7,2.4c-0.2,0.7-1,1.2-1.7,1c-0.7-0.2-1.2-1-1-1.7l1.3-4.9c0-0.1,0-0.2,0-0.2
		c0.4-1.6,0-3.2-1.1-4.5c-1.1-1.3-2.6-2.1-4.3-2.1H4.1l1.2-4.6c0.4-1.4,0.2-2.9-0.5-4.2c-0.7-1.3-1.9-2.2-3.3-2.6l-0.2-0.1L-4.2,798
		c0,0.2-0.1,0.4-0.1,0.5l-0.8,3.1c-0.1,0.4-0.3,0.7-0.7,0.8c-0.3,0.2-0.7,0.2-1.1,0.1c-0.7-0.2-1.2-1-1-1.7l1.3-4.9
		c0.8-2.9-1-6-3.9-6.8l-0.2-0.1l-2.5,9.4l-0.6,2.4c-0.3,1.3-1.7,2-2.9,1.7c-1.3-0.3-2-1.7-1.7-2.9l1-3.9l0,0
		c0.3-1.4,0.1-2.7-0.6-3.9c-0.7-1.3-1.9-2.2-3.4-2.6l-0.2-0.1l-2.3,8.7c-1,3.7,1.2,7.4,4.8,8.4c0.6,0.2,1.2,0.2,1.8,0.2
		c1.9,0,3.7-0.8,5-2.1c0.7,0.9,1.7,1.6,2.9,1.9c0.5,0.1,1,0.2,1.4,0.2c2,0,3.9-1.1,4.8-2.8c0.5,0.7,1.2,1.3,2,1.8l0,0l0.2,0.1
		c0.1,0,0.2,0.1,0.3,0.2c0,0,0,0,0,0l0.2,0.1l0,0c1.2,0.6,2.5,0.9,3.8,0.9c4.9,0,8.8-3.9,8.8-8.8c0-2.1-0.7-4.2-2-5.6h3.4
		c0.7,0,1.4,0.3,1.9,0.9s0.7,1.3,0.5,2l-1,4.2l-0.1,0.4c-0.3,1.1-0.2,2.7,0.5,3.9c0.7,1.3,1.9,2.2,3.4,2.6c0.5,0.1,1,0.2,1.4,0.2
		c1,0,1.9-0.2,2.8-0.7c0.6-0.4,1.1-0.8,1.6-1.3c0.6,0.8,1.4,1.5,2.5,2l0.3,0.2l1.9-6.9l2.5,4c0.7,1.3,1.9,2.2,3.4,2.6
		c0.5,0.1,1,0.2,1.4,0.2c1,0,1.9-0.2,2.8-0.7l0.2-0.1l-3.5-5.7C38.1,799.3,39.7,797.1,39.7,794.6z M5.9,800.9
		c-0.3,1.3-1.7,2-2.9,1.7c-1.3-0.3-2.1-1.7-1.7-2.9l1-3.6l1.7-6.1C7.3,796.3,5.9,800.9,5.9,800.9z M33.1,796.8l-3.8,2.2l1.8-6.5H32
		c1.3,0,2.4,1.1,2.4,2.4c0,0,0,0.1,0,0.1C34.3,795.7,33.8,796.4,33.1,796.8z"/>
</g>
</svg>
